<?xml version="1.0" encoding="utf-8"?>
<!-- Generator: Adobe Illustrator 27.7.0, SVG Export Plug-In . SVG Version: 6.00 Build 0)  -->
<svg version="1.1" id="Layer_1" xmlns="http://www.w3.org/2000/svg" xmlns:xlink="http://www.w3.org/1999/xlink" x="0px" y="0px"
	 viewBox="0 0 1920 1080" style="enable-background:new 0 0 1920 1080;" xml:space="preserve">
<style type="text/css">
	.st0{fill-rule:evenodd;clip-rule:evenodd;fill:#ED1C76;}
	.st1{fill-rule:evenodd;clip-rule:evenodd;fill:#83C44D;}
	.st2{fill:#FFFFFF;}
</style>
<g>
	<path class="st0" d="M533.9,351.2h46.7c24.5-48.8,54.8-86.9,82-108.9L636,209.4C600.3,238.4,562,288.4,533.9,351.2z M580.4,729.1
		h-47.3c22.7,47.8,55.6,95.4,101.3,141.1l29.9-29.9C628,804,600.5,766.6,580.4,729.1z"/>
	<path class="st1" d="M1365.4,729.1h-47c-24.1,47.2-53.8,85.5-80.8,110.5l28.7,31C1300.5,838.9,1337.5,789.6,1365.4,729.1z
		 M1368.3,351.2h-47.4c-20.1-37.1-47.6-74.2-83.9-110.5l29.9-29.9C1312.6,256.5,1345.6,303.8,1368.3,351.2z"/>
	<path class="st2" d="M1601.5,668.3V409.7h36.9v105.7h197.9V409.7h37v258.6h-37V546.1h-197.9v122.2H1601.5z"/>
	<path class="st2" d="M1454.9,590.1l38.1,7.9c-9.7,17.3-19.8,34.5-45,50.4c-31.3,19.8-71.6,25.5-102.2,25.5
		c-103.3,0-154.4-59.4-154.4-134.9c0-60.1,29.9-87.8,47.1-100.7c10.8-8.6,41-32,106.1-32c18.4,0,62.6,2.5,96.8,23.7
		c27,16.9,39.6,38.1,46.4,49.7l-38.9,8.6c-5.8-10.1-11.9-20.9-27.7-31.3c-15.5-10.1-42.8-19.1-75.2-19.1
		c-60.4,0-116.6,28.4-116.6,100c0,25.2,7.2,51.1,26.3,72.3c17.3,17.6,46.8,32.4,92.5,32.4c39.2,0.4,65.5-9.7,81-21.9
		C1443,610.6,1451.3,597.7,1454.9,590.1z"/>
	<path class="st2" d="M798.9,668.3l133.5-258.6h38.8l132.4,258.6h-42.1l-31.5-63.7H871.4l-31.5,63.7H798.9z M1014.4,574.6L959.9,466
		c-1.8-4.4-4-8.8-5.9-13.2c-1.1-3.3-2.2-6.6-2.9-9.9c-1.1,3.3-2.2,7-3.7,10.6c-1.8,4.8-4,9.1-6.2,13.9l-54.5,107.2H1014.4z"/>
	<path class="st2" d="M451.4,668.3V410h238.5v31.8H488V519h196.4v30.4H488v87.1H699v31.8H451.4z"/>
	<path class="st2" d="M46.7,668.3V410h175.6c22.7,0.4,50.1,0.7,72.4,20.9c8.4,7.3,23,24.1,23,55.2c0,61.8-52.3,70.2-69.5,73.2
		l95.1,109h-47.9L208,565.1H83.3v103.2H46.7z M224.9,441.1H82.9v93.6h127.7c20.1,0,45.7-0.4,60.4-19.8c6.6-8.4,8.8-18.3,8.8-27.4
		c0-9.9-2.6-19.8-7.7-27.4C260.3,441.5,241.7,441.5,224.9,441.1z"/>
</g>
</svg>
