<svg width="182" height="66" viewBox="0 0 182 66" fill="none" xmlns="http://www.w3.org/2000/svg">
<path fillRule="evenodd" clipRule="evenodd" d="M48.5445 14.1205H53.2016C55.6381 9.25998 58.6664 5.46017 61.3697 3.27008L58.7205 0C55.1565 2.88737 51.3484 7.87087 48.5445 14.1205ZM53.1775 51.7757H48.4639C50.7229 56.5416 54.0071 61.2803 58.5572 65.8303L61.5331 62.8544C57.9178 59.2392 55.1829 55.5166 53.1775 51.7757Z" fill="#FF0075"/>
<path fillRule="evenodd" clipRule="evenodd" d="M131.389 51.7757H126.711C124.306 56.4761 121.352 60.2913 118.658 62.7828L121.515 65.8728C124.931 62.7142 128.615 57.8027 131.389 51.7757ZM131.688 14.1206H126.963C124.955 10.4236 122.218 6.72769 118.599 3.10846L121.575 0.132568C126.134 4.6918 129.425 9.40127 131.688 14.1206Z" fill="#64F259"/>
<path d="M154.918 45.7189V19.9487H158.599V30.4828H178.319V19.9487H182V45.7189H178.319V33.5446H158.599V45.7189H154.918Z" fill="white"/>
<path d="M140.312 37.9314L144.112 38.7201C143.144 40.4409 142.14 42.1617 139.63 43.7391C136.511 45.7109 132.496 46.2845 129.449 46.2845C119.16 46.2845 114.069 40.3692 114.069 32.8407C114.069 26.8538 117.045 24.0933 118.766 22.8027C119.841 21.9423 122.853 19.6121 129.341 19.6121C131.17 19.6121 135.579 19.863 138.985 21.9782C141.674 23.6631 142.929 25.7783 143.61 26.9255L139.738 27.7859C139.164 26.7821 138.555 25.7066 136.977 24.6669C135.436 23.6631 132.711 22.7669 129.485 22.7669C123.462 22.7669 117.869 25.599 117.869 32.7332C117.869 35.2427 118.586 37.8239 120.486 39.939C122.207 41.6957 125.147 43.1655 129.7 43.1655C133.608 43.2014 136.225 42.1976 137.766 40.9787C139.128 39.9749 139.953 38.6843 140.312 37.9314Z" fill="white"/>
<path d="M74.9502 45.7189L88.2544 19.9487H92.1181L105.313 45.7189H101.121L97.9866 39.3766H82.1673L79.0326 45.7189H74.9502ZM96.4192 36.3877L90.9882 25.562C90.8059 25.1246 90.5872 24.6872 90.405 24.2498C90.2956 23.9218 90.1863 23.5937 90.1134 23.2657C90.004 23.5937 89.8947 23.9582 89.7489 24.3227C89.5666 24.7966 89.3479 25.234 89.1292 25.7078L83.6982 36.3877H96.4192Z" fill="white"/>
<path d="M40.3213 45.7188V19.9851H64.0867V23.1563H43.9663V30.8472H63.5399V33.8725H43.9663V42.5476H64.9979V45.7188H40.3213Z" fill="white"/>
<path d="M0 45.7192V19.9855H17.496C19.7559 20.0219 22.4896 20.0584 24.7131 22.0631C25.5514 22.7921 27.0094 24.4688 27.0094 27.5671C27.0094 33.7271 21.7971 34.5655 20.0839 34.8571L29.5609 45.7192H24.786L16.0744 35.4403H3.645V45.7192H0ZM17.7511 23.0837H3.60855V32.4149H16.3296C18.3343 32.4149 20.8858 32.3785 22.3438 30.4466C22.9999 29.6083 23.2186 28.6241 23.2186 27.7129C23.2186 26.7287 22.9635 25.7446 22.4532 24.9791C21.2868 23.1202 19.4278 23.1202 17.7511 23.0837Z" fill="white"/>
</svg>
